<svg width="50" height="50" viewBox="0 0 50 50" fill="none" xmlns="http://www.w3.org/2000/svg">
<path id="Vector" d="M46.5542 46.5467V26.159C46.5542 23.7733 44.6127 21.8168 42.2444 21.8168L37.0096 21.8219C31.3224 21.8219 26.667 26.5012 26.667 32.2227V36.146C26.667 39.8496 25.9351 41.8827 23.2313 45.2696C20.8274 48.1456 16.8784 49.9898 12.8888 49.9949L7.74548 50C3.4814 49.9898 0 46.4854 0 42.2097V20.0953C0 19.5027 0.299858 18.9765 0.752185 18.67L22.0675 1.36778C24.3139 -0.455927 27.8461 -0.455927 30.0874 1.36778C34.3769 4.85173 41.2025 10.425 45.5275 13.9345C47.4792 15.4057 45.2124 18.2205 43.3726 16.6113L27.9427 4.04971C26.9567 3.24768 25.1982 3.24768 24.2122 4.04971L6.58162 18.3686L3.44582 20.601V42.2097C3.44582 44.5953 5.38727 46.5518 7.75564 46.5518L12.899 46.5467C18.5861 46.5467 23.2415 41.8674 23.2415 36.146V32.2227C23.2415 28.4833 23.9734 26.4706 26.6772 23.099C29.0862 20.223 33.025 18.3788 37.0197 18.3737L42.2545 18.3686C46.5186 18.3788 50 21.8832 50 26.159V48.2734C50 49.2286 49.2326 50 48.2822 50C47.3318 50 46.5643 49.2286 46.5643 48.2734V46.5467H46.5542Z" fill="#F87801"/>
</svg>
