<svg width="191" height="87" viewBox="0 0 191 87" fill="none" xmlns="http://www.w3.org/2000/svg">
<path d="M81.6998 80.7029V45.636C81.6998 41.5327 78.3335 38.1675 74.227 38.1675L65.1505 38.1763C55.2896 38.1763 47.2176 46.2247 47.2176 56.0656V62.8136C47.2176 69.1838 45.9487 72.6808 41.2606 78.5063C37.0924 83.4531 30.2453 86.625 23.3277 86.6338L14.4098 86.6426C7.01634 86.625 0.97998 80.5975 0.97998 73.2432V35.2064C0.97998 34.1872 1.4999 33.2822 2.28419 32.755L39.2426 2.99516C43.1376 -0.141616 49.2621 -0.141616 53.1483 2.99516C60.5858 8.98755 72.4205 18.5736 79.9197 24.6099C83.3036 27.1404 79.3734 31.9818 76.1834 29.2141L49.4295 7.60807C47.7199 6.22859 44.6709 6.22859 42.9613 7.60807L12.3918 32.2366L6.95466 36.0763V73.2432C6.95466 77.3465 10.3209 80.7117 14.4274 80.7117L23.3454 80.7029C33.2062 80.7029 41.2782 72.6545 41.2782 62.8136V56.0656C41.2782 49.6339 42.5472 46.172 47.2353 40.3729C51.4122 35.4261 58.2417 32.2542 65.1681 32.2454L74.2447 32.2366C81.6381 32.2542 87.6745 38.2817 87.6745 45.636V83.6727C87.6745 85.3158 86.3438 86.6426 84.696 86.6426C83.0481 86.6426 81.7174 85.3158 81.7174 83.6727V80.7029H81.6998Z" fill="#163FA5"/>
<path d="M154.004 54.6424C150.25 54.6424 148.567 56.8214 147.906 57.7264L150.655 59.7825C151.122 58.8511 152.092 57.7879 153.995 57.7879C155.749 57.7879 156.93 58.4381 156.93 60.7138V62.2691C151.211 62.0494 147.527 63.9209 147.527 67.8485C147.527 70.2823 149.307 72.5844 152.621 72.5844C155.308 72.5844 156.621 71.3982 157.335 70.4932H157.458C157.961 71.6179 158.93 72.4526 160.613 72.4526C161.204 72.4526 161.829 72.3559 162.393 72.0133V69.3334H161.926C160.957 69.3334 160.552 68.648 160.552 67.4619V60.1691C160.552 56.18 158.172 54.6248 153.986 54.6248M156.921 67.9276C156.295 68.8326 155.079 69.5794 153.608 69.5794C152.136 69.5794 151.299 68.6744 151.299 67.4882C151.299 65.5552 153.458 64.7468 156.921 64.9314V67.9188V67.9276ZM133.454 57.0235H133.331C132.705 55.6528 131.515 54.5282 128.889 54.5282C126.792 54.5282 125.171 55.4595 124.325 56.6193H124.201L123.514 54.906H120.421V72.2593H124.263V60.2306C124.668 58.9565 125.884 57.7967 127.418 57.7967C129.259 57.7967 130.229 58.9829 130.229 61.285V72.2505H134.106V60.0988C134.573 58.8247 135.86 57.7967 137.384 57.7967C138.909 57.7967 140.072 58.7281 140.072 60.9774V72.2593H143.914V60.2921C143.914 56.3997 141.975 54.5282 138.574 54.5282C136.01 54.5282 134.265 55.7143 133.445 57.0235H133.454ZM111.141 50.1964C111.141 51.4705 112.173 52.4721 113.45 52.4721C114.86 52.4721 115.856 51.4705 115.856 50.1964C115.856 48.7906 114.86 47.7626 113.45 47.7626C112.173 47.7626 111.141 48.7906 111.141 50.1964ZM111.644 72.2593H115.486V54.906H111.644V72.2593ZM95.9845 50.4161V72.2593H108.48V68.9907H99.8883V50.4161H95.9845ZM186.926 40.461C186.926 41.5241 186.142 42.394 184.336 42.394C182.274 42.394 180.582 41.3045 179.709 40.338L177.4 43.0442C178.396 44.0722 180.652 45.5044 184.151 45.5044C188.865 45.5044 190.777 42.5785 190.777 40.2413C190.777 34.4159 182.344 35.5669 182.344 32.4828C182.344 31.4548 183.155 30.6728 184.715 30.6728C186.274 30.6728 187.464 31.4548 188.187 32.228L190.654 29.7327C189.526 28.485 187.561 27.5185 184.812 27.5185C180.846 27.5185 178.528 29.9787 178.528 32.6937C178.528 38.5192 186.935 37.3945 186.935 40.4522L186.926 40.461ZM167.742 45.5132C173.303 45.5132 175.488 41.8053 175.488 36.4455C175.488 31.0858 173.646 27.536 167.892 27.536C162.138 27.536 160.146 31.2439 160.146 36.6037C160.146 41.9635 162.023 45.5132 167.742 45.5132ZM164.12 36.4104C164.12 32.4828 165.152 30.6113 167.716 30.6113C170.465 30.6113 171.558 32.641 171.558 36.6213C171.558 40.6016 170.65 42.4204 167.901 42.4204C165.151 42.4204 164.12 40.3643 164.12 36.4104ZM154.092 45.3551C156.683 45.3551 157.97 44.7927 158.595 44.3885L157.564 41.4626C156.974 41.902 156.093 42.1831 155.097 42.1831C153.819 42.1831 152.999 41.4978 152.999 40.0041V30.8134H157.529V27.8524H152.999V23.3625H150.497L149.219 27.6327L146.84 28.4147V30.8134H149.219V40.0041C149.219 43.8701 151.158 45.3638 154.092 45.3638V45.3551ZM144.249 33.2033C144.214 29.3109 142.222 27.4394 138.777 27.4394C136.618 27.4394 134.838 28.5289 133.992 29.5569H133.868L133.084 27.8436H130.114V45.1969H133.956V33.1682C134.52 31.7623 135.833 30.7343 137.49 30.7343C139.367 30.7343 140.363 31.9205 140.363 34.038V45.1969H144.24V33.2033H144.249ZM118.561 27.5624C114.807 27.5624 113.124 29.7415 112.463 30.6465L115.213 32.7025C115.68 31.7711 116.649 30.708 118.553 30.708C120.306 30.708 121.487 31.3582 121.487 33.6339V35.1891C115.768 34.9694 112.084 36.8409 112.084 40.7685C112.084 43.2024 113.864 45.5044 117.178 45.5044C119.866 45.5044 121.179 44.3182 121.892 43.4132H122.016C122.518 44.5379 123.487 45.3726 125.171 45.3726C125.761 45.3726 126.387 45.276 126.951 44.9333V42.2534H126.484C125.514 42.2534 125.109 41.5681 125.109 40.3819V33.0891C125.109 29.1 122.73 27.5448 118.544 27.5448L118.561 27.5624ZM121.496 40.8652C120.87 41.7702 119.654 42.517 118.182 42.517C116.711 42.517 115.874 41.612 115.874 40.4258C115.874 38.4928 118.033 37.6844 121.496 37.869V40.8564V40.8652ZM101.968 42.1743C99.3155 42.1743 97.4649 40.707 96.4339 39.7405L94.1868 42.9476C95.1209 43.8789 97.6236 45.5044 101.501 45.5044C106.718 45.5044 109.405 42.4819 109.405 39.2133C109.405 32.3247 99.2186 33.0715 99.2186 28.9595C99.2186 27.5273 100.311 26.4377 102.285 26.4377C104.409 26.4377 105.696 27.5273 106.445 28.2741L108.85 25.3482C107.943 24.3817 105.784 23.0461 102.602 23.0461C98.2933 23.0461 95.2266 25.7612 95.2266 29.2758C95.2266 36.1644 105.449 35.4439 105.449 39.4681C105.449 40.9618 104.294 42.1831 101.977 42.1831L101.968 42.1743Z" fill="white"/>
<path d="M187.067 80.8172L187.772 82.1263L190.143 86.5547H190.98V80.1845H190.469V85.9133H190.398L189.702 84.6217L187.323 80.1757H186.477V86.546H186.997V80.8172H187.067ZM181.674 83.3301C181.674 80.9929 180.775 80.0879 179.277 80.0879C177.779 80.0879 176.81 81.0368 176.81 83.3916C176.81 85.7464 177.709 86.6338 179.207 86.6338C180.705 86.6338 181.674 85.6849 181.674 83.3301ZM177.374 83.3301C177.374 81.2477 178.105 80.6063 179.233 80.6063C180.361 80.6063 181.11 81.3004 181.11 83.3916C181.11 85.4828 180.388 86.1154 179.251 86.1154C178.114 86.1154 177.374 85.4213 177.374 83.3301ZM171.373 86.546H171.919V80.1757H171.373V86.546ZM164.667 86.546H165.213V80.6854H166.94V80.1757H162.922V80.6854H164.658V86.546H164.667ZM154.947 83.4004C154.947 85.3774 155.705 86.6338 157.405 86.6338C158.26 86.6338 158.798 86.4142 159.08 86.1506L158.771 85.764C158.533 85.9836 158.163 86.1154 157.494 86.1154C156.198 86.1154 155.511 85.184 155.511 83.3477C155.511 81.5113 156.26 80.6063 157.441 80.6063C158.093 80.6063 158.498 80.7732 158.78 80.9841L159.115 80.5448C158.895 80.3603 158.392 80.0791 157.502 80.0791C155.846 80.0791 154.938 81.2916 154.938 83.3916L154.947 83.4004ZM147.985 86.1154C146.981 86.1154 146.302 85.597 146.302 84.4021V80.1757H145.756V84.4636C145.756 85.8518 146.549 86.6338 147.932 86.6338C149.316 86.6338 150.171 85.8255 150.171 84.4108V80.1757H149.624V84.4636C149.624 85.6761 148.981 86.1154 147.985 86.1154ZM137.728 80.6854H138.565C139.622 80.6854 140.195 81.0368 140.195 82.0121C140.195 82.9874 139.552 83.3301 138.627 83.3301H137.728V80.6854ZM137.181 80.1757V86.546H137.728V83.8309H138.336C138.847 83.8309 139.164 84.0594 139.437 84.5251L140.618 86.5547H141.27L140.037 84.4987C139.755 84.0154 139.517 83.8134 139.279 83.7167V83.6816C140.054 83.6113 140.742 82.9786 140.742 81.9594C140.742 80.7029 139.94 80.1845 138.635 80.1845H137.164L137.181 80.1757ZM130.572 86.546H131.119V80.6854H132.846V80.1757H128.827V80.6854H130.563V86.546H130.572ZM123.082 86.1154C122.315 86.1154 121.813 85.8518 121.443 85.5619L121.108 86.0012C121.522 86.3439 122.157 86.6338 123.047 86.6338C124.351 86.6338 125.109 85.8694 125.109 84.9117C125.109 82.9611 122.042 83.3125 122.042 81.7222C122.042 81.072 122.535 80.6063 123.364 80.6063C123.857 80.6063 124.254 80.7293 124.624 81.0105L124.959 80.5624C124.553 80.2548 124.007 80.0879 123.39 80.0879C122.28 80.0879 121.487 80.8084 121.487 81.7485C121.487 83.7518 124.554 83.3828 124.554 84.938C124.554 85.597 124.034 86.1154 123.091 86.1154H123.082ZM112.701 80.8084L113.406 82.1176L115.777 86.546H116.614V80.1757H116.103V85.9045H116.032L115.336 84.6129L112.957 80.167H112.111V86.5372H112.631V80.8084H112.701ZM107.308 83.3213C107.308 80.9841 106.409 80.0791 104.911 80.0791C103.413 80.0791 102.444 81.028 102.444 83.3828C102.444 85.7376 103.343 86.625 104.841 86.625C106.339 86.625 107.308 85.6761 107.308 83.3213ZM103.008 83.3213C103.008 81.2389 103.739 80.5975 104.867 80.5975C105.995 80.5975 106.744 81.2916 106.744 83.3828C106.744 85.474 106.021 86.1066 104.885 86.1066C103.748 86.1066 103.008 85.4125 103.008 83.3213ZM94.1778 83.3916C94.1778 85.3686 94.9357 86.625 96.6364 86.625C97.4912 86.625 98.0288 86.4054 98.3107 86.1418L98.0023 85.7552C97.7644 85.9748 97.3943 86.1066 96.7245 86.1066C95.4291 86.1066 94.7418 85.1753 94.7418 83.3389C94.7418 81.5025 95.4908 80.5975 96.6717 80.5975C97.3238 80.5975 97.7291 80.7644 98.0111 80.9753L98.346 80.536C98.1257 80.3515 97.6234 80.0703 96.7334 80.0703C95.0767 80.0703 94.169 81.2828 94.169 83.3828L94.1778 83.3916Z" fill="white"/>
</svg>
